<svg xmlns="http://www.w3.org/2000/svg" width="1051" height="668" viewBox="0 0 1051 668">
<g>
<path d="M 142.50,455.98 C126.65,454.23 118.31,450.47 109.36,441.02 C105.53,436.97 100.76,427.65 98.88,420.50 C96.05,409.78 97.36,383.95 101.10,376.76 C101.59,375.81 102.00,374.58 102.00,374.03 C102.00,373.49 103.53,370.67 105.40,367.77 C115.20,352.57 131.23,344.15 152.00,343.28 C157.86,343.03 164.38,343.31 166.75,343.92 C169.09,344.51 172.76,345.44 174.92,345.99 C183.32,348.10 190.04,353.22 193.60,360.22 C197.56,367.99 196.35,376.60 190.80,380.19 C176.39,389.53 161.56,371.50 173.68,359.39 C176.62,356.45 177.72,356.00 182.03,356.00 C184.85,356.00 187.00,355.54 187.00,354.94 C187.00,353.02 176.63,349.15 166.80,347.41 L 157.11,345.69 L 149.30,348.53 C130.12,355.52 121.16,373.09 122.29,401.50 C122.90,416.96 123.77,420.84 129.35,433.00 C132.40,439.65 143.04,447.78 151.98,450.31 C157.67,451.92 173.00,452.29 178.62,450.96 C183.84,449.72 188.42,450.11 184.50,451.46 C183.40,451.84 181.72,452.56 180.76,453.07 C179.81,453.58 178.09,454.00 176.95,454.00 C175.80,454.00 174.11,454.39 173.18,454.88 C170.73,456.15 150.65,456.87 142.50,455.98 M 225.46,456.13 C219.69,455.12 214.25,451.41 211.97,446.94 C209.84,442.76 209.16,430.64 211.00,429.50 C211.55,429.16 212.00,428.10 212.00,427.14 C212.00,426.19 213.69,423.81 215.75,421.86 C222.15,415.81 230.47,412.94 247.75,410.82 L 258.00,409.57 L 258.00,400.60 C258.00,390.75 255.89,384.44 251.70,381.76 C245.66,377.89 234.27,377.10 227.70,380.09 C224.41,381.59 224.27,382.64 227.25,383.55 C231.79,384.92 234.00,388.02 234.00,393.00 C234.00,399.45 231.24,402.00 224.26,402.00 C219.91,402.00 218.83,401.60 217.05,399.34 C214.15,395.65 213.56,392.52 215.04,388.73 C218.67,379.51 230.68,374.76 244.90,376.93 C262.86,379.67 268.02,381.32 273.42,386.07 C280.14,391.96 280.25,392.52 280.91,423.50 C281.23,438.90 281.86,452.06 282.31,452.75 C282.75,453.44 283.77,454.00 284.56,454.00 C285.35,454.00 286.00,454.46 286.00,455.03 C286.00,455.70 281.18,455.96 272.25,455.78 L 258.50,455.50 L 258.00,449.69 L 257.50,443.88 L 253.50,448.03 C251.30,450.30 247.92,452.98 246.00,453.98 C241.97,456.06 231.38,457.17 225.46,456.13 M 246.80,450.60 C250.75,448.54 253.59,445.13 255.93,439.67 C257.62,435.72 258.00,432.73 258.00,423.42 L 258.00,412.00 L 254.55,412.00 C241.70,412.00 233.52,417.83 231.13,428.72 C227.75,444.12 236.30,456.06 246.80,450.60 M 415.50,456.57 C414.95,456.35 413.25,455.90 411.72,455.56 C406.21,454.34 400.67,447.91 397.02,438.50 C394.13,431.03 393.14,413.70 395.12,405.26 C397.78,393.94 398.65,391.69 401.98,387.36 C405.12,383.28 406.86,381.97 413.24,378.85 C415.96,377.52 427.20,377.86 432.43,379.43 C437.40,380.92 438.25,381.69 443.07,388.98 L 446.04,393.45 L 445.77,369.48 C445.50,345.69 445.48,345.49 443.25,344.51 C442.01,343.97 441.00,343.23 441.00,342.86 C441.00,342.50 444.94,341.96 449.75,341.68 C454.56,341.39 460.75,340.72 463.50,340.19 C466.25,339.66 468.84,339.42 469.25,339.67 C469.66,339.92 470.00,365.29 470.00,396.05 C470.00,450.90 470.04,452.01 472.00,453.23 C473.10,453.92 474.00,454.84 474.00,455.27 C474.00,455.70 467.81,455.93 460.25,455.78 L 446.50,455.50 L 446.00,448.00 C445.60,442.02 445.34,441.08 444.70,443.35 C442.41,451.60 435.59,456.01 424.25,456.58 C419.99,456.80 416.05,456.79 415.50,456.57 M 437.94,449.84 C439.21,448.66 441.44,445.17 442.88,442.09 C445.30,436.92 445.53,435.29 445.85,420.50 C446.29,400.06 444.86,392.83 439.20,386.76 C435.96,383.28 431.39,382.39 426.74,384.33 C419.85,387.21 418.02,394.13 418.01,417.35 C418.00,437.91 419.31,444.62 424.24,449.23 C428.07,452.80 434.45,453.09 437.94,449.84 M 553.09,456.34 C547.39,455.11 540.18,448.22 537.59,441.50 C532.78,429.07 532.77,405.84 537.56,393.50 C541.33,383.80 550.30,377.96 561.28,378.06 C572.87,378.17 574.92,378.93 579.85,385.01 C582.29,388.03 584.68,390.65 585.15,390.83 C586.40,391.32 586.22,348.28 584.96,345.93 C584.40,344.87 583.27,344.00 582.46,344.00 C581.66,344.00 581.00,343.59 581.00,343.10 C581.00,342.60 584.94,341.97 589.75,341.69 C594.56,341.42 600.52,340.74 603.00,340.18 C606.28,339.45 607.69,339.49 608.23,340.34 C608.64,340.98 608.98,365.66 608.98,395.18 C608.99,427.61 609.39,449.89 609.98,451.43 C610.51,452.85 611.64,454.00 612.48,454.00 C613.31,454.00 614.00,454.46 614.00,455.03 C614.00,455.70 609.18,455.96 600.25,455.78 L 586.50,455.50 L 586.00,449.00 L 585.49,442.50 L 583.50,446.40 C580.41,452.44 573.08,456.10 563.25,456.52 C558.99,456.70 554.42,456.62 553.09,456.34 M 576.92,450.06 C582.07,446.39 585.17,435.64 585.74,419.50 C586.50,397.93 581.84,385.66 572.07,383.52 C566.83,382.36 562.53,385.29 559.84,391.82 C557.66,397.11 557.50,398.85 557.50,417.00 C557.50,439.43 558.48,444.46 563.78,449.11 C567.73,452.58 572.86,452.95 576.92,450.06 M 643.50,456.35 C638.55,455.60 634.29,453.17 631.06,449.25 C628.24,445.83 628.00,444.95 628.00,437.87 C628.00,431.82 628.48,429.29 630.25,425.97 C632.49,421.77 639.50,416.00 642.37,416.00 C643.20,416.00 644.13,415.60 644.43,415.11 C644.73,414.62 646.45,413.99 648.24,413.71 C650.03,413.43 654.65,412.48 658.50,411.60 C662.35,410.72 667.86,410.00 670.75,410.00 L 676.00,410.00 L 676.00,402.18 C676.00,387.49 671.96,381.07 661.37,378.90 C656.30,377.87 654.07,377.90 648.45,379.07 C640.81,380.68 639.18,382.44 644.42,383.42 C651.58,384.76 654.51,394.21 649.36,399.36 C647.26,401.47 645.77,402.00 642.00,402.00 C632.26,402.00 628.83,393.25 635.13,384.47 C641.67,375.36 652.97,374.14 678.50,379.78 C684.17,381.04 690.44,384.47 693.00,387.72 C697.70,393.70 698.00,395.78 698.00,422.30 C698.00,448.67 698.71,454.00 702.20,454.00 C703.19,454.00 704.00,454.46 704.00,455.03 C704.00,455.70 699.18,455.96 690.25,455.78 L 676.50,455.50 L 676.20,449.60 L 675.89,443.71 L 671.91,447.85 C669.72,450.13 666.23,452.86 664.16,453.92 C660.33,455.87 649.10,457.20 643.50,456.35 M 665.86,449.95 C672.03,446.47 676.00,435.42 676.00,421.72 L 676.00,412.00 L 670.53,412.00 C663.70,412.00 654.91,415.68 652.33,419.61 C649.37,424.14 648.03,429.09 648.02,435.60 C647.98,448.83 656.17,455.41 665.86,449.95 M 740.34,456.10 C731.02,454.50 725.14,447.52 723.04,435.57 C722.47,432.30 722.00,418.92 722.00,405.82 L 722.00,382.00 L 717.00,382.00 C714.25,382.00 712.00,381.55 712.00,381.00 C712.00,380.45 714.23,380.00 716.96,380.00 L 721.92,380.00 L 722.21,371.25 L 722.50,362.50 L 727.00,361.88 C729.48,361.53 733.52,360.76 736.00,360.17 C738.48,359.57 741.74,358.79 743.25,358.43 L 746.00,357.77 L 746.00,368.88 L 746.00,380.00 L 754.00,380.00 C758.67,380.00 762.00,380.42 762.00,381.00 C762.00,381.58 758.67,382.00 754.00,382.00 L 746.00,382.00 L 746.00,414.08 L 746.00,446.15 L 748.92,449.08 C750.68,450.83 752.90,452.00 754.49,452.00 C760.53,452.00 766.00,446.54 766.00,440.51 C766.00,439.01 766.43,438.15 767.00,438.50 C768.64,439.51 768.14,444.04 766.00,447.50 C761.63,454.57 751.40,458.00 740.34,456.10 M 299.00,455.24 C299.00,454.82 300.01,454.03 301.25,453.49 L 303.50,452.50 L 303.76,419.12 C303.95,394.98 303.71,385.35 302.87,384.34 C301.26,382.40 301.87,382.07 309.12,380.90 C312.63,380.34 317.81,379.39 320.63,378.81 C323.46,378.22 326.27,378.05 326.88,378.43 C327.50,378.81 328.02,381.68 328.05,384.81 C328.10,390.22 328.18,390.39 329.64,388.30 C335.27,380.25 339.49,378.00 349.00,378.02 C362.82,378.04 370.76,383.01 374.52,394.00 C374.99,395.38 375.63,409.10 375.94,424.50 C376.50,452.33 376.51,452.51 378.75,453.49 C383.38,455.52 380.61,456.05 366.75,455.78 L 352.50,455.50 L 351.97,422.00 C351.67,403.57 351.34,388.46 351.22,388.40 C351.10,388.35 350.21,387.42 349.25,386.35 C348.29,385.27 346.01,383.79 344.20,383.05 C339.90,381.31 337.22,382.68 331.91,389.35 L 328.00,394.26 L 328.00,422.55 C328.00,438.11 328.27,451.55 328.61,452.42 C328.94,453.29 329.84,454.00 330.61,454.00 C331.37,454.00 332.00,454.45 332.00,455.00 C332.00,455.63 325.83,456.00 315.50,456.00 C306.43,456.00 299.00,455.66 299.00,455.24 M 487.00,455.24 C487.00,454.82 488.01,454.03 489.25,453.49 L 491.50,452.50 L 491.76,419.12 C491.95,394.98 491.71,385.35 490.87,384.34 C489.26,382.40 489.87,382.06 497.12,380.91 C500.63,380.35 505.62,379.43 508.21,378.87 C510.80,378.30 513.39,378.12 513.96,378.48 C514.65,378.90 515.00,390.64 515.00,412.93 C515.00,431.53 515.29,448.22 515.65,450.01 C516.05,451.98 517.03,453.46 518.15,453.75 C519.17,454.02 520.00,454.63 520.00,455.12 C520.00,455.60 512.58,456.00 503.50,456.00 C494.43,456.00 487.00,455.66 487.00,455.24 M 824.50,453.00 C823.26,450.99 825.24,450.00 830.51,450.00 C836.41,450.00 840.56,448.58 843.22,445.65 C847.78,440.64 848.00,435.22 848.00,326.98 C848.00,229.05 847.58,212.56 844.94,206.25 C841.57,198.19 839.06,195.21 833.42,192.53 C827.96,189.94 819.42,188.00 813.45,188.00 C803.61,188.00 807.75,186.31 819.25,185.64 C847.40,183.99 858.75,182.48 875.00,178.21 C881.26,176.57 893.31,171.12 902.00,166.01 C906.67,163.25 911.04,161.00 911.70,161.00 C912.64,161.00 912.98,192.34 913.21,300.25 C913.49,433.05 913.59,439.65 915.34,442.77 C917.85,447.26 923.59,450.00 930.46,450.00 C935.33,450.00 936.00,450.24 936.00,452.00 C936.00,453.98 935.33,454.00 880.56,454.00 C844.68,454.00 824.90,453.65 824.50,453.00 M 187.50,449.00 C187.84,448.45 188.54,448.00 189.06,448.00 C189.58,448.00 190.00,448.45 190.00,449.00 C190.00,449.55 189.30,450.00 188.44,450.00 C187.58,450.00 187.16,449.55 187.50,449.00 M 495.26,365.56 C493.67,364.22 491.75,361.28 491.01,359.03 C489.80,355.36 489.86,354.44 491.58,350.30 C493.89,344.71 497.74,342.17 504.02,342.07 C507.62,342.01 509.28,342.60 512.13,344.96 C517.97,349.77 518.29,359.56 512.78,365.06 C510.20,367.64 509.13,368.00 504.00,368.00 C499.26,368.00 497.60,367.54 495.26,365.56 M 532.00,290.45 C532.00,253.36 531.64,233.20 530.96,231.93 C530.40,230.87 529.05,230.00 527.96,230.00 C526.88,230.00 526.00,229.59 526.00,229.10 C526.00,228.60 529.94,227.96 534.75,227.68 C542.34,227.23 548.46,226.34 554.00,224.89 C555.21,224.58 555.56,225.89 555.79,231.75 C555.96,235.74 556.41,239.00 556.79,239.00 C557.18,239.00 558.79,236.96 560.36,234.47 C565.67,226.07 577.59,222.26 589.05,225.29 C603.99,229.26 610.01,241.05 609.99,266.30 C609.97,287.81 605.39,298.58 593.63,304.70 C591.43,305.85 587.83,306.34 581.50,306.37 C570.67,306.40 567.61,305.08 562.24,298.03 C560.18,295.32 557.94,293.09 557.25,293.06 C556.29,293.01 556.00,298.03 556.00,314.95 C556.00,337.11 556.67,342.00 559.72,342.00 C560.49,342.00 560.84,342.45 560.50,343.00 C560.16,343.55 556.83,344.00 553.09,344.00 C549.35,344.00 544.99,344.41 543.40,344.92 C541.80,345.42 538.59,346.10 536.25,346.43 L 532.00,347.02 L 532.00,290.45 M 578.75,299.46 C584.07,295.74 586.00,286.68 586.00,265.45 C586.00,247.48 585.51,244.08 581.83,236.38 C577.26,226.82 565.52,228.07 560.50,238.64 C554.27,251.78 554.59,282.78 561.06,292.21 C565.93,299.30 568.13,301.00 572.46,301.00 C574.71,301.00 577.54,300.31 578.75,299.46 M 356.46,306.66 C346.75,304.43 339.93,297.98 337.25,288.50 C334.17,277.56 333.84,274.81 334.34,263.89 C335.01,249.18 335.55,246.47 339.35,238.84 C345.02,227.46 354.76,223.39 370.36,225.89 C376.62,226.89 377.93,227.49 381.00,230.77 C382.93,232.82 385.27,235.62 386.20,237.00 C387.82,239.38 387.90,238.41 387.95,215.76 C388.00,193.07 387.91,191.96 386.00,190.77 C384.90,190.08 384.00,189.23 384.00,188.87 C384.00,188.51 387.26,187.97 391.25,187.67 C395.24,187.37 400.52,186.68 403.00,186.13 C405.48,185.58 408.40,184.99 409.50,184.81 C411.48,184.50 411.51,185.20 412.00,242.50 C412.27,274.40 412.89,301.29 413.36,302.25 C413.83,303.21 415.07,304.00 416.11,304.00 C417.15,304.00 418.00,304.46 418.00,305.03 C418.00,305.70 412.85,305.96 403.25,305.78 L 388.50,305.50 L 388.00,299.00 L 387.50,292.50 L 385.00,297.00 C382.26,301.93 376.72,305.31 369.50,306.46 C367.30,306.81 364.60,307.26 363.50,307.45 C362.40,307.65 359.23,307.29 356.46,306.66 M 379.75,298.20 C382.50,295.42 384.12,292.41 385.80,286.95 C387.88,280.24 388.07,278.00 387.71,264.50 C387.50,256.25 386.80,247.31 386.17,244.63 C383.15,231.86 374.28,226.49 366.28,232.60 C360.56,236.97 358.00,247.26 358.00,265.94 C358.00,290.81 362.51,301.83 372.75,301.96 C375.22,301.99 376.90,301.09 379.75,298.20 M 462.00,306.42 C446.14,303.57 437.41,296.10 432.93,281.55 C430.28,272.95 431.78,248.64 435.20,244.55 C435.64,244.03 436.00,243.02 436.00,242.31 C436.00,239.30 443.97,231.58 449.90,228.84 C463.49,222.57 477.23,222.39 492.81,228.28 C498.69,230.50 506.12,237.20 508.36,242.31 C512.25,251.16 512.50,252.63 512.43,266.50 C512.36,279.59 512.18,280.88 509.62,286.31 C505.04,296.05 500.43,300.12 488.52,304.96 C485.49,306.19 466.54,307.23 462.00,306.42 M 481.91,302.25 C487.67,296.48 491.01,274.27 489.03,254.75 C487.66,241.14 486.34,235.46 483.62,231.50 C480.03,226.26 479.48,226.00 472.00,226.00 C464.61,226.00 463.75,226.38 460.68,231.08 C456.59,237.34 455.65,243.65 455.57,265.50 C455.52,280.69 455.88,287.74 456.88,291.00 C460.53,302.92 462.79,304.90 472.83,304.96 C478.42,305.00 479.47,304.68 481.91,302.25 M 648.46,306.14 C640.64,304.75 633.67,298.34 631.48,290.50 C631.02,288.85 630.48,274.56 630.29,258.75 L 629.94,230.00 L 624.41,230.00 C620.98,230.00 619.12,229.62 619.50,229.00 C619.84,228.45 622.33,228.00 625.02,228.00 L 629.93,228.00 L 630.21,218.25 L 630.50,208.50 L 636.00,207.86 C639.02,207.50 643.30,206.69 645.50,206.04 C654.92,203.26 654.00,202.20 654.00,215.88 L 654.00,228.00 L 663.00,228.00 C668.33,228.00 672.00,228.41 672.00,229.00 C672.00,229.59 668.33,230.00 663.00,230.00 L 654.00,230.00 L 654.00,261.55 C654.00,295.38 654.21,296.93 659.22,300.44 C663.00,303.09 666.88,302.41 670.63,298.43 C673.13,295.78 674.02,293.91 674.09,291.18 C674.17,287.55 674.18,287.54 675.03,290.36 C675.50,291.93 675.51,293.95 675.06,294.86 C674.60,295.76 673.63,297.78 672.90,299.34 C672.17,300.90 669.94,303.01 667.96,304.02 C663.80,306.14 654.32,307.17 648.46,306.14 M 715.00,306.14 C703.46,304.71 693.12,297.09 688.53,286.63 C683.94,276.16 683.28,256.18 687.21,247.00 C692.80,233.94 699.97,228.06 713.83,225.13 C720.43,223.73 731.67,223.65 732.50,225.00 C732.84,225.55 733.98,226.00 735.03,226.00 C737.33,226.00 743.62,229.38 746.81,232.33 C750.11,235.38 752.80,240.04 754.50,245.64 C756.11,250.93 756.52,262.56 755.14,263.42 C754.66,263.71 744.04,263.99 731.53,264.04 L 708.78,264.13 L 709.47,271.56 C711.67,294.97 724.93,305.68 745.25,300.47 C750.06,299.24 748.27,301.66 742.75,303.85 C736.90,306.17 723.92,307.25 715.00,306.14 M 734.60,259.89 C736.24,258.08 736.48,256.33 736.37,247.14 C736.16,230.77 733.13,226.00 722.94,226.00 C714.66,226.00 711.63,230.40 709.08,246.12 C708.48,249.75 708.00,254.56 708.00,256.80 C708.00,261.65 708.04,261.67 722.60,261.86 C731.69,261.99 732.88,261.79 734.60,259.89 M 217.00,305.00 C217.00,304.45 217.62,304.00 218.38,304.00 C221.14,304.00 225.70,297.88 227.91,291.22 C229.14,287.53 235.45,265.15 241.93,241.50 C250.07,211.83 253.42,198.11 252.74,197.25 C252.20,196.56 250.91,196.00 249.88,196.00 C248.84,196.00 248.00,195.54 248.00,194.98 C248.00,194.31 254.09,194.05 265.60,194.23 L 283.20,194.50 L 284.46,198.50 C285.15,200.70 286.28,204.53 286.97,207.00 C287.66,209.47 288.58,212.62 289.00,214.00 C289.42,215.38 290.32,218.53 291.00,221.00 C291.68,223.47 292.58,226.62 293.00,228.00 C293.42,229.38 294.32,232.53 295.00,235.00 C295.67,237.47 296.58,240.40 297.00,241.50 C297.42,242.60 298.33,245.53 299.02,248.00 C300.46,253.18 301.95,258.40 303.02,262.00 C303.43,263.38 304.32,266.52 305.00,269.00 C305.68,271.48 306.58,274.62 307.00,276.00 C307.42,277.38 308.33,280.52 309.02,283.00 C313.42,298.83 316.28,304.00 320.67,304.00 C321.95,304.00 323.00,304.45 323.00,305.00 C323.00,305.64 313.83,306.00 297.50,306.00 C281.17,306.00 272.00,305.64 272.00,305.00 C272.00,304.45 273.53,304.00 275.41,304.00 C282.22,304.00 285.85,295.74 283.07,286.57 C282.56,284.88 281.59,281.48 280.92,279.00 C280.26,276.52 279.15,272.70 278.46,270.50 L 277.20,266.50 L 257.25,266.23 L 237.30,265.96 L 233.65,279.82 C231.64,287.45 230.00,294.50 230.00,295.50 C230.00,296.50 231.15,298.82 232.55,300.66 C234.57,303.31 235.81,304.00 238.55,304.00 C240.45,304.00 242.00,304.45 242.00,305.00 C242.00,305.61 237.17,306.00 229.50,306.00 C221.83,306.00 217.00,305.61 217.00,305.00 M 276.00,262.55 C276.00,261.75 275.60,260.06 275.10,258.80 C274.61,257.53 273.66,254.47 272.99,252.00 C272.32,249.53 271.42,246.60 271.00,245.50 C270.58,244.40 269.67,241.47 269.00,239.00 C268.32,236.53 267.42,233.38 267.00,232.00 C266.58,230.62 265.68,227.47 265.00,225.00 C264.33,222.53 263.43,219.60 263.01,218.50 C262.58,217.40 261.21,213.24 259.95,209.25 C258.69,205.26 257.10,202.00 256.40,202.00 C255.06,202.00 254.88,202.55 246.93,231.00 C240.77,253.03 240.38,258.29 244.64,261.70 C247.32,263.85 248.40,263.99 261.75,264.00 C273.55,264.00 276.00,263.75 276.00,262.55 M 749.50,299.00 C749.84,298.45 750.32,298.00 750.56,298.00 C750.80,298.00 751.00,298.45 751.00,299.00 C751.00,299.55 750.52,300.00 749.94,300.00 C749.36,300.00 749.16,299.55 749.50,299.00 Z" fill="rgba(0,0,0,1)"/>
</g>
</svg>