<svg width="60" height="61" viewBox="0 0 60 61" fill="none" xmlns="http://www.w3.org/2000/svg">
<path d="M14.6506 50.58C15.4416 50.58 16.0443 50.2033 16.986 49.337L22.3159 44.4402C21.2612 43.5927 20.3572 42.1613 20.3572 39.2421V25.9832C20.3572 20.0505 23.9921 16.491 29.9247 16.491H43.485L43.4662 15.9071C43.1271 12.1592 40.6411 9.6355 36.1587 9.6355H9.97982C5.45973 9.6355 2.61584 12.2722 2.61584 16.8676V35.739C2.61584 40.2779 5.40323 43.0653 9.84799 43.0653H12.8614V48.5271C12.8614 49.7701 13.5206 50.58 14.6506 50.58ZM46.3854 53.292C47.5342 53.292 48.1934 52.4822 48.1934 51.2392V45.7774H50.1333C54.578 45.7774 57.3654 42.99 57.3654 38.4511V26.4728C57.3654 21.8774 54.5215 19.2407 50.0014 19.2407H30.4897C25.8001 19.2407 23.1257 21.8586 23.1257 26.5482V38.4511C23.1257 43.0277 25.819 45.7774 30.4897 45.7774H37.1192L44.0688 52.049C45.0105 52.9154 45.5944 53.292 46.3854 53.292Z" fill="black"/>
</svg>
