<svg width="20" height="21" viewBox="0 0 20 21" fill="none" xmlns="http://www.w3.org/2000/svg">
<path d="M4.375 1.72461H15.7744C15.7129 0.933594 15.2471 0.511719 14.3945 0.511719H5.74609C4.90234 0.511719 4.42773 0.933594 4.375 1.72461ZM2.50293 4.28223H17.5059C17.3828 3.44727 16.9521 2.96387 16.0117 2.96387H3.98828C3.04785 2.96387 2.62598 3.44727 2.50293 4.28223ZM3.36426 20.832H16.6182C18.5166 20.832 19.5186 19.8477 19.5186 17.9668V8.59766C19.5186 6.7168 18.5166 5.73242 16.6182 5.73242H3.36426C1.45703 5.73242 0.472656 6.70801 0.472656 8.59766V17.9668C0.472656 19.8477 1.45703 20.832 3.36426 20.832ZM9.99121 14.6973C8.46191 14.6885 7.27539 13.4141 7.2666 11.7266C7.2666 10.127 8.4707 8.7998 9.99121 8.7998C11.5205 8.7998 12.7158 10.127 12.7158 11.7266C12.7158 13.4141 11.5293 14.7148 9.99121 14.6973ZM4.84082 19.127C5.53516 17.29 7.56543 16.0068 9.99121 16.0068C12.4258 16.0068 14.4473 17.29 15.1504 19.127H4.84082Z" fill="#1C1C1E"/>
</svg>
